<?xml version="1.0" encoding="utf-8"?>
<!-- Generator: Adobe Illustrator 26.3.1, SVG Export Plug-In . SVG Version: 6.00 Build 0)  -->
<svg version="1.1" id="Layer_1" xmlns="http://www.w3.org/2000/svg" xmlns:xlink="http://www.w3.org/1999/xlink" x="0px" y="0px"
	 viewBox="0 0 829.1 169.1" style="enable-background:new 0 0 829.1 169.1;" xml:space="preserve">
<style type="text/css">
	.st0{fill:#FFFFFF;}
</style>
<path class="st0" d="M128.6,1.9v15.5c0,2.8-2.3,5.1-5.1,5.1H108v83h20.6V27.6c0-2.8,2.3-5.1,5.1-5.1h15.5V1.9H128.6z"/>
<path class="st0" d="M48.1,1.9c24.1,0,39.3,9,39.3,28.7c0.1,9.8-5.9,18.6-15,22c9.5,3.2,17.2,12,17.2,23.2c0,19.9-14.1,29.7-39,29.7
	H5.8V1.9H48.1z M26.4,20.1v24.2h21.2c10.3,0,18.3-2.2,18.3-12.2c0-9.8-8.1-12-18.4-12L26.4,20.1z M26.4,62.5v24.9l23.2,0.1
	c11.4,0,18.6-2.7,18.6-12.6c0-9.7-7.2-12.4-18.6-12.4H26.4z"/>
<path class="st0" d="M261.7,53.7c0,30.9-22.6,53.7-54.5,53.7s-54.4-22.8-54.4-53.7S175.4,0,207.3,0S261.7,22.8,261.7,53.7z
	 M174.4,53.7c0,20.1,13.8,33.9,32.9,33.9s32.9-13.8,32.9-33.9s-13.8-33.9-32.9-33.9S174.4,33.6,174.4,53.7z"/>
<path class="st0" d="M344.5,28c-8.8-5.6-19-8.7-29.4-8.8c-11.6,0-19.8,4.6-19.8,12.4c0,7.6,9,9.9,21.4,12l5.8,1c18.5,3,33,11,33,29
	c0,22.9-20.1,33.8-42.4,33.8c-15.7,0-32.6-4.6-43.7-13.5l10.8-16.7c7.5,6,19.7,11.2,33,11.2c11.5,0,20.4-4.5,20.4-12.5
	c0-7.2-7.5-9.8-22-12.1l-6.6-1c-18.3-2.9-31.6-11-31.6-29.7c0-21.6,19.2-32.8,41.3-32.8c14.5,0,26.6,3.2,39.6,11L344.5,28z"/>
<path class="st0" d="M448.6,105.5h-77.4V1.9H448v19h-56.2v22.9h53.6v18.9h-53.6v23.8h56.8L448.6,105.5L448.6,105.5z"/>
<path class="st0" d="M510.7,1.9c24.7,0,38,11.7,38,31.5c0,17-11.8,28.6-31.8,30.6l31.9,41.5h-25l-30.2-41.2h-6.1v41.2h-20.6V1.9
	H510.7z M487.5,20.9v25.4h22.8c11.2,0,17.1-4.2,17.1-12.9s-6.1-12.5-17.1-12.5C510.3,20.9,487.5,20.9,487.5,20.9z"/>
<path class="st0" d="M667.2,53.7c0,30.9-22.6,53.7-54.5,53.7s-54.4-22.8-54.4-53.7S580.8,0,612.7,0S667.2,22.8,667.2,53.7z
	 M579.9,53.7c0,20.1,13.8,33.9,32.9,33.9s32.9-13.8,32.9-33.9s-13.8-33.9-32.9-33.9S579.9,33.6,579.9,53.7z"/>
<g>
	<path class="st0" d="M766.9,43.4v20.7h-15.6c-2.8,0-5.2,2.3-5.2,5.2v15.6h-15.6c-2.8,0-5.2,2.3-5.2,5.2v15.6h-20.7V84.8h15.6
		c2.8,0,5.2-2.3,5.2-5.1V64.1H741c2.8,0,5.2-2.3,5.2-5.2V48.5c0-2.8-2.3-5.2-5.2-5.2h-15.6V27.8c0-2.8-2.3-5.2-5.2-5.2h-15.6V1.9
		h20.7v15.6c0,2.8,2.3,5.1,5.2,5.2H746v15.6c0,2.8,2.3,5.1,5.2,5.2h15.7V43.4z"/>
	<path class="st0" d="M829.1,43.4v20.7h-15.6c-2.8,0-5.2,2.3-5.2,5.2v15.6h-15.6c-2.8,0-5.2,2.3-5.2,5.2v15.6h-20.7V84.8h15.6
		c2.8,0,5.2-2.3,5.2-5.1V64.1h15.5c2.8,0,5.2-2.3,5.2-5.2V48.5c0-2.8-2.3-5.2-5.2-5.2h-15.5V27.8c0-2.8-2.3-5.2-5.2-5.2h-15.6V1.9
		h20.7v15.6c0,2.8,2.3,5.1,5.2,5.2h15.6v15.6c0,2.8,2.3,5.1,5.2,5.2h15.6V43.4z"/>
</g>
</svg>
